<?xml version="1.0" standalone="no"?>
<!DOCTYPE svg PUBLIC "-//W3C//DTD SVG 20010904//EN"
 "http://www.w3.org/TR/2001/REC-SVG-20010904/DTD/svg10.dtd">
<svg version="1.0" xmlns="http://www.w3.org/2000/svg"
 width="1472.000000pt" height="1472.000000pt" viewBox="0 0 1472.000000 1472.000000"
 preserveAspectRatio="xMidYMid meet">
<metadata>
Created by potrace 1.11, written by Peter Selinger 2001-2013
</metadata>
<g transform="translate(0.000000,1472.000000) scale(0.100000,-0.100000)"
fill="#000000" stroke="none">
<path d="M9050 9905 c-47 -7 -112 -18 -145 -25 -70 -16 -58 -13 -115 -29 -25
-7 -46 -13 -47 -12 -11 3 -291 -116 -303 -129 -3 -3 -18 -12 -35 -20 -49 -23
-174 -108 -260 -175 -109 -85 -216 -193 -330 -332 -5 -7 -15 -19 -22 -27 -19
-22 -109 -158 -123 -186 -7 -14 -16 -27 -20 -30 -7 -5 -86 -166 -120 -245 -22
-50 -75 -204 -81 -233 -1 -4 -8 -27 -15 -52 -17 -57 -52 -237 -59 -310 -3 -30
-8 -77 -11 -105 -5 -55 -5 -121 1 -270 3 -96 8 -142 22 -230 17 -108 24 -139
45 -215 11 -41 21 -79 22 -85 4 -13 7 -22 46 -130 18 -49 45 -116 61 -147 15
-32 25 -58 22 -58 -4 0 0 -8 8 -17 8 -10 25 -38 38 -63 74 -140 218 -333 343
-460 247 -251 577 -439 893 -511 28 -6 55 -12 60 -13 9 -3 59 -11 130 -22 17
-3 104 -6 195 -8 244 -4 417 23 632 99 69 25 229 95 238 105 3 3 19 12 35 20
17 8 64 36 105 64 302 197 540 465 704 791 46 92 72 147 81 175 1 3 4 12 8 20
7 17 48 140 52 155 1 6 3 12 3 15 1 3 8 28 17 55 38 126 80 428 77 560 -1 56
-13 256 -16 275 -2 14 -8 48 -12 75 -8 59 -10 71 -18 108 -3 15 -8 37 -10 50
-9 45 -37 143 -51 180 -8 20 -15 39 -15 42 -2 27 -72 194 -122 292 -53 105
-186 313 -200 313 -4 0 -8 5 -8 12 0 10 -95 121 -173 200 -30 31 -121 110
-176 154 -13 11 -29 25 -36 32 -8 6 -17 12 -22 12 -4 1 -24 14 -43 30 -19 17
-40 30 -46 30 -7 0 -14 3 -16 8 -7 15 -174 104 -279 147 -76 31 -194 70 -264
85 -27 7 -54 13 -60 14 -5 2 -30 6 -55 10 -25 4 -58 10 -75 12 -68 12 -375 11
-455 -1z m416 -209 c27 -4 63 -10 79 -13 17 -2 39 -6 50 -8 98 -17 268 -75
385 -132 211 -103 414 -260 560 -433 25 -29 50 -58 55 -65 6 -6 15 -18 20 -26
6 -9 35 -53 66 -100 87 -130 143 -242 215 -434 4 -11 8 -24 9 -30 2 -5 10 -35
20 -65 32 -103 64 -280 71 -385 4 -72 4 -272 -1 -325 -9 -102 -16 -155 -25
-194 -5 -23 -11 -52 -14 -66 -77 -408 -332 -826 -666 -1091 -156 -123 -429
-263 -575 -294 -16 -4 -37 -9 -45 -12 -18 -7 -36 -11 -75 -17 -16 -3 -59 -10
-95 -16 -139 -24 -391 -17 -540 16 -14 3 -36 7 -50 10 -134 27 -394 142 -531
234 -336 227 -592 570 -721 965 -46 144 -86 337 -94 460 -4 72 -4 272 1 325 9
102 16 155 25 194 5 23 11 52 13 66 30 161 144 461 217 570 9 14 37 57 62 95
123 191 302 373 493 502 171 115 427 222 597 249 186 30 372 37 494 20z"/>
<path d="M5497 9262 c-142 -356 -262 -656 -267 -667 -5 -11 -77 -191 -160
-400 -83 -209 -155 -389 -160 -400 -5 -11 -221 -551 -480 -1200 -259 -649
-475 -1189 -480 -1200 -5 -11 -28 -67 -50 -125 -22 -58 -45 -113 -50 -123 -11
-18 -9 -20 37 -30 13 -3 25 -2 28 3 2 4 22 4 42 0 21 -3 50 -3 64 1 15 3 32 3
38 0 6 -4 34 -4 61 -1 28 4 50 4 50 1 0 -3 25 -6 55 -6 30 0 55 4 55 8 0 5 4
5 10 2 5 -3 33 -5 62 -5 79 1 78 1 146 -2 34 -2 62 0 62 3 0 3 22 3 50 -1 27
-3 55 -3 61 0 6 4 27 4 47 0 21 -3 48 -3 62 0 14 4 34 4 44 0 11 -3 39 -3 63
0 23 4 43 4 43 1 0 -5 214 -5 835 -2 39 0 78 0 88 0 57 -1 135 0 157 1 14 1
32 1 40 1 8 0 35 0 60 0 25 0 51 0 58 0 16 -1 218 -1 235 0 6 0 32 0 57 0 25
0 54 -1 65 -1 11 0 40 1 65 1 25 0 51 0 58 0 10 0 175 -1 240 0 9 0 187 -1
394 -1 208 -1 382 1 388 5 6 4 6 12 0 23 -9 16 -958 2385 -964 2407 -5 18 -18
49 -32 80 -15 33 -284 704 -288 720 -5 18 -18 49 -32 80 -8 17 -57 140 -110
275 -53 135 -102 259 -109 275 -7 17 -43 107 -80 200 -37 94 -73 184 -80 200
-23 53 -67 160 -69 170 -2 6 -8 21 -13 35 -6 14 -23 57 -38 95 -15 39 -35 88
-45 110 -9 22 -23 57 -31 78 -7 20 -15 37 -19 37 -3 0 -121 -292 -263 -648z
m323 -17 c28 -71 55 -139 60 -150 5 -11 19 -45 30 -75 11 -30 26 -66 32 -80
19 -43 27 -63 48 -120 11 -30 25 -64 30 -75 5 -11 19 -45 30 -75 12 -30 27
-66 32 -80 6 -14 14 -34 18 -45 4 -11 12 -31 18 -45 6 -14 43 -106 82 -205 39
-99 75 -189 80 -200 5 -11 19 -45 30 -75 22 -55 35 -88 51 -125 5 -11 40 -101
79 -200 39 -99 75 -189 80 -200 5 -11 19 -45 30 -75 21 -53 33 -81 51 -125 5
-11 18 -45 29 -75 11 -30 25 -64 30 -75 5 -11 28 -67 50 -125 23 -58 47 -118
55 -135 7 -16 27 -68 45 -115 18 -47 38 -98 45 -115 7 -16 18 -41 24 -55 6
-14 33 -83 61 -155 28 -71 55 -139 60 -150 5 -11 19 -45 30 -75 21 -57 23 -62
59 -142 12 -26 21 -52 21 -58 0 -6 4 -18 9 -28 18 -33 41 -90 41 -100 0 -6 6
-23 14 -39 21 -42 31 -67 86 -208 28 -71 55 -139 60 -150 5 -11 23 -53 39 -92
26 -64 28 -73 13 -74 -54 -3 -3201 -3 -3218 -1 -23 4 -27 -6 71 227 5 11 9 22
10 25 3 12 48 128 60 155 40 88 49 111 60 150 4 17 14 41 21 55 8 14 28 61 45
105 17 44 36 91 42 105 6 14 11 27 11 30 4 15 41 107 46 115 4 6 13 28 20 50
7 22 24 64 37 93 14 29 26 58 27 65 3 13 15 42 41 102 10 22 19 42 20 45 7 27
18 59 25 75 34 77 73 170 75 179 1 6 7 22 12 36 6 14 25 61 42 105 18 44 38
94 45 110 8 17 17 41 21 55 4 14 13 35 21 47 8 12 16 30 17 40 2 10 9 32 16
48 7 17 33 81 58 144 25 63 56 138 69 167 13 30 24 57 25 62 2 10 14 42 34 87
10 22 19 42 20 45 7 28 19 60 30 85 7 17 32 77 54 135 23 58 46 114 51 125 5
11 55 135 111 275 55 140 106 266 112 280 6 14 11 27 12 30 3 12 48 128 60
155 40 88 49 111 60 150 4 17 14 41 21 55 8 14 28 61 45 105 17 44 36 91 42
105 5 14 9 30 8 35 -2 7 1 7 8 0 5 -5 33 -68 61 -140z"/>
<path d="M38 9602 l-38 -3 0 -639 0 -638 51 0 c28 -1 53 -3 56 -6 2 -2 17 -1
31 3 15 5 36 5 46 1 11 -3 39 -3 63 0 23 4 43 4 43 1 0 -3 25 -6 55 -6 30 0
55 3 55 6 0 3 22 3 50 -1 27 -3 55 -3 61 0 6 4 27 4 47 0 21 -3 48 -3 62 0 14
4 34 4 44 0 11 -3 39 -3 63 0 23 4 43 4 43 1 0 -3 25 -6 55 -6 30 0 55 4 55 8
0 5 4 6 8 3 7 -4 70 -7 112 -5 8 0 35 0 60 0 56 -1 65 -1 170 0 47 0 92 0 100
0 44 -2 105 1 112 5 4 3 8 2 8 -3 0 -4 25 -8 55 -8 30 0 55 3 55 6 0 3 20 3
43 -1 24 -3 52 -3 63 0 10 4 30 4 44 0 14 -3 41 -3 62 0 20 4 41 4 47 0 6 -3
34 -3 61 0 28 4 50 4 50 1 0 -3 25 -6 55 -6 30 0 55 3 55 6 0 3 20 3 43 -1 24
-3 52 -3 63 0 10 4 30 4 44 0 14 -3 41 -3 62 0 20 4 41 4 47 0 6 -3 34 -3 61
0 28 4 50 4 50 1 0 -3 28 -5 62 -4 126 5 190 5 195 0 2 -3 17 -2 31 2 15 5 36
5 46 1 11 -3 39 -3 63 0 23 4 43 4 43 1 0 -3 25 -6 55 -6 30 0 55 3 55 7 0 3
8 4 18 2 29 -8 182 -9 182 -2 0 3 9 4 20 1 24 -6 21 -54 20 432 0 193 -1 356
-1 363 1 31 0 223 0 235 0 6 0 32 0 57 0 25 1 54 1 65 0 86 -1 110 -9 118 -8
8 -3061 17 -3153 9z m2967 -642 l0 -435 -155 -2 c-85 -2 -213 -2 -285 -2 -145
1 -171 1 -200 -1 -21 -2 -862 -1 -1080 1 -71 1 -143 1 -160 1 -52 -2 -300 -1
-620 1 l-310 2 0 437 0 438 1405 -3 1405 -2 0 -435z"/>
<path d="M10906 9602 c-9 -2 -16 -6 -16 -9 0 -4 24 -36 62 -82 6 -7 26 -34 46
-60 19 -25 40 -50 46 -56 6 -5 23 -26 36 -45 14 -19 34 -45 45 -56 11 -12 29
-34 39 -48 11 -15 27 -35 35 -45 9 -10 27 -33 41 -51 30 -39 120 -149 137
-168 7 -7 20 -26 30 -42 9 -17 20 -30 23 -30 4 0 22 -21 41 -47 18 -26 40 -55
49 -63 8 -9 26 -31 40 -50 14 -18 48 -61 75 -95 28 -33 64 -78 80 -99 17 -22
35 -44 40 -50 6 -6 24 -29 40 -51 17 -22 32 -42 35 -45 3 -3 25 -30 50 -60 25
-30 47 -57 51 -60 3 -3 10 -12 15 -21 5 -9 25 -36 45 -60 21 -24 68 -82 105
-129 37 -47 71 -87 74 -90 3 -3 17 -21 30 -40 13 -19 27 -37 31 -40 4 -3 23
-27 44 -55 20 -27 43 -54 49 -60 6 -5 23 -26 36 -45 13 -19 31 -42 40 -50 9
-8 27 -31 40 -50 14 -19 32 -42 40 -50 8 -9 26 -31 40 -50 28 -37 118 -148
137 -168 7 -7 20 -26 30 -42 9 -17 20 -30 23 -30 4 0 22 -21 41 -47 18 -27 43
-58 56 -70 12 -12 30 -36 39 -53 10 -16 21 -30 25 -30 4 0 16 -15 28 -32 11
-18 28 -42 38 -53 10 -11 45 -54 78 -95 59 -74 75 -94 106 -130 8 -10 24 -31
35 -46 10 -14 26 -34 34 -43 9 -9 33 -40 55 -68 22 -29 42 -53 45 -53 3 0 16
-18 30 -40 14 -22 27 -40 31 -40 3 0 21 -21 40 -47 18 -27 41 -57 51 -68 16
-19 35 -42 78 -95 11 -14 63 -79 115 -145 52 -66 105 -131 118 -145 12 -14 33
-41 47 -60 13 -19 27 -37 30 -40 4 -3 43 -51 88 -107 44 -57 86 -108 92 -115
5 -7 31 -40 58 -73 26 -33 52 -65 57 -72 6 -7 20 -25 32 -40 12 -15 39 -49 60
-74 21 -25 47 -58 58 -73 11 -16 25 -33 30 -40 23 -25 112 -135 135 -166 14
-18 30 -38 35 -44 6 -6 35 -42 65 -81 30 -38 57 -72 60 -75 3 -3 17 -21 32
-42 15 -20 34 -42 41 -50 7 -7 21 -24 30 -38 16 -23 17 109 17 2377 l0 2402
-37 1 c-83 2 -182 2 -213 0 -14 -1 -32 -1 -40 -1 -8 0 -35 0 -60 0 -25 0 -51
0 -57 0 -7 0 -60 0 -118 0 -58 0 -111 0 -117 0 -7 0 -33 0 -58 0 -25 0 -54 1
-65 1 -11 0 -40 -1 -65 -1 -25 0 -51 0 -57 0 -7 0 -60 0 -118 0 -58 0 -111 0
-117 0 -7 0 -33 0 -58 0 -25 0 -54 1 -65 1 -11 0 -40 -1 -65 -1 -25 0 -51 0
-57 0 -7 0 -60 0 -118 0 -58 0 -111 0 -117 0 -7 0 -33 0 -58 0 -25 0 -54 1
-65 1 -11 0 -40 -1 -65 -1 -25 0 -51 0 -57 0 -7 0 -60 0 -118 0 -58 0 -111 0
-117 0 -7 0 -33 0 -58 0 -25 0 -54 1 -65 1 -11 0 -40 -1 -65 -1 -25 0 -51 0
-57 0 -7 0 -60 0 -118 0 -58 0 -111 0 -117 0 -7 0 -33 0 -58 0 -25 0 -54 1
-65 1 -11 0 -40 -1 -65 -1 -25 0 -51 0 -57 0 -7 0 -60 0 -118 0 -58 0 -111 0
-117 0 -7 0 -33 0 -58 0 -25 0 -54 1 -65 1 -11 0 -40 -1 -65 -1 -25 0 -51 0
-57 0 -7 0 -60 0 -118 0 -58 0 -111 0 -117 0 -19 -1 -109 0 -138 1 -14 1 -50
2 -81 3 -31 1 -63 1 -73 -1z m3620 -2225 c1 -1109 0 -2017 -1 -2017 -1 0 -21
24 -43 53 -22 28 -48 62 -58 73 -11 12 -30 36 -44 54 -14 18 -30 38 -35 44 -6
6 -35 43 -65 81 -30 39 -59 75 -65 81 -5 6 -21 26 -35 44 -26 34 -240 301
-268 335 -10 11 -31 38 -47 60 -17 22 -45 56 -62 75 -18 19 -33 40 -33 47 0 6
-4 13 -9 15 -13 5 -231 277 -231 288 0 6 -4 10 -8 10 -4 0 -24 21 -44 48 -20
26 -45 57 -55 68 -10 12 -28 34 -40 50 -31 40 -410 514 -431 539 -10 11 -31
38 -47 60 -17 22 -45 56 -62 75 -18 19 -33 39 -33 43 0 4 -10 18 -22 31 -13
12 -34 38 -48 56 -14 18 -58 73 -97 121 -40 49 -73 92 -73 96 0 5 -9 14 -20
21 -11 7 -20 17 -20 23 0 5 -10 21 -22 34 -13 13 -28 30 -33 37 -67 85 -171
214 -175 218 -3 3 -19 23 -36 45 -16 22 -44 56 -61 75 -18 19 -33 41 -33 48 0
6 -3 12 -8 12 -4 0 -34 34 -66 76 -33 41 -67 83 -75 93 -9 10 -27 33 -41 51
-14 18 -49 63 -78 99 -29 36 -59 73 -65 81 -20 24 -211 263 -224 280 -40 50
-110 137 -118 146 -5 6 -21 26 -35 44 -14 18 -55 70 -92 115 -37 45 -66 84
-63 86 2 2 727 4 1612 4 l1608 0 1 -2018z"/>
<path d="M43 6402 l-43 -3 0 -641 0 -640 45 4 c25 2 45 1 45 -2 0 -3 27 -3 60
0 33 3 65 3 70 0 6 -4 33 -3 60 0 28 4 50 4 50 1 0 -3 25 -6 55 -6 30 0 55 4
55 8 0 5 4 5 10 2 5 -3 33 -5 62 -5 79 1 78 1 146 -2 34 -2 62 0 62 3 0 3 22
3 50 -1 27 -3 55 -3 61 0 6 4 27 4 47 0 21 -3 48 -3 62 0 14 4 34 4 44 0 11
-3 39 -3 63 0 23 4 43 4 43 1 0 -5 214 -5 835 -2 39 0 78 0 88 0 57 -1 135 0
157 1 14 1 32 1 40 1 8 0 35 0 60 0 25 0 51 0 58 0 6 0 59 0 117 0 58 0 111 0
118 0 6 0 32 0 57 0 25 0 54 -1 65 -1 11 0 40 1 65 1 25 0 52 0 60 0 8 0 65 0
125 0 130 0 124 0 199 -1 32 0 61 2 64 5 7 7 4 174 -3 186 -4 5 -3 9 2 9 4 0
8 25 8 55 0 30 -3 55 -6 55 -3 0 -3 22 1 50 3 27 4 54 0 60 -3 5 -3 37 0 70 3
33 3 60 -1 60 -3 0 -5 10 -2 23 7 46 8 257 0 257 -5 0 -6 4 -3 9 6 9 7 33 5
181 0 25 0 52 0 60 3 74 0 183 -4 190 -3 5 -16 10 -28 10 -12 0 -29 0 -37 1
-24 1 -153 0 -180 -1 -14 -1 -32 -1 -40 -1 -8 0 -35 0 -60 0 -25 0 -51 -1 -57
0 -14 0 -215 1 -235 0 -7 0 -33 0 -58 0 -25 0 -54 1 -65 1 -11 0 -40 -1 -65
-1 -25 0 -51 0 -57 0 -7 0 -60 0 -118 0 -58 0 -113 0 -122 0 -10 0 -208 1
-440 1 -233 1 -427 -2 -433 -5 -5 -3 -10 -2 -10 2 0 5 -27 6 -60 3 -33 -3 -65
-3 -70 0 -6 4 -33 3 -60 0 -28 -4 -50 -4 -50 -1 0 3 -25 6 -55 6 -30 0 -55 -4
-55 -8 0 -5 -4 -5 -10 -2 -5 3 -33 5 -62 5 -79 -1 -78 -1 -146 2 -34 2 -62 0
-62 -3 0 -3 -22 -3 -50 1 -27 3 -55 3 -61 0 -6 -4 -27 -4 -47 0 -21 3 -48 3
-62 0 -14 -4 -34 -4 -44 0 -11 3 -39 3 -63 0 -23 -4 -43 -4 -43 -1 0 6 -78 8
-147 3z m2547 -205 l415 -2 0 -435 0 -435 -1403 -2 c-771 -1 -1403 1 -1403 5
-1 4 -2 202 -3 439 l-1 433 959 -1 c527 0 960 2 962 4 2 2 16 2 31 0 16 -2
215 -5 443 -6z"/>
</g>
</svg>
