<svg aria-hidden="true" style="position: absolute; width: 0; height: 0; overflow: hidden;" version="1.1" xmlns="http://www.w3.org/2000/svg" xmlns:xlink="http://www.w3.org/1999/xlink">
<defs>
<symbol id="icon-sort" viewBox="0 0 24 24">
<title>sort</title>
<path d="M21 12.984v-1.969h-12v1.969h12zM21 6h-18v2.016h18v-2.016zM21 18v-2.016h-6v2.016h6z"></path>
</symbol>
<symbol id="icon-twitter" viewBox="0 0 26 28">
<title>twitter</title>
<path d="M25.312 6.375c-0.688 1-1.547 1.891-2.531 2.609 0.016 0.219 0.016 0.438 0.016 0.656 0 6.672-5.078 14.359-14.359 14.359-2.859 0-5.516-0.828-7.75-2.266 0.406 0.047 0.797 0.063 1.219 0.063 2.359 0 4.531-0.797 6.266-2.156-2.219-0.047-4.078-1.5-4.719-3.5 0.313 0.047 0.625 0.078 0.953 0.078 0.453 0 0.906-0.063 1.328-0.172-2.312-0.469-4.047-2.5-4.047-4.953v-0.063c0.672 0.375 1.453 0.609 2.281 0.641-1.359-0.906-2.25-2.453-2.25-4.203 0-0.938 0.25-1.797 0.688-2.547 2.484 3.062 6.219 5.063 10.406 5.281-0.078-0.375-0.125-0.766-0.125-1.156 0-2.781 2.25-5.047 5.047-5.047 1.453 0 2.766 0.609 3.687 1.594 1.141-0.219 2.234-0.641 3.203-1.219-0.375 1.172-1.172 2.156-2.219 2.781 1.016-0.109 2-0.391 2.906-0.781z"></path>
</symbol>
<symbol id="icon-facebook" viewBox="0 0 16 28">
<title>facebook</title>
<path d="M14.984 0.187v4.125h-2.453c-1.922 0-2.281 0.922-2.281 2.25v2.953h4.578l-0.609 4.625h-3.969v11.859h-4.781v-11.859h-3.984v-4.625h3.984v-3.406c0-3.953 2.422-6.109 5.953-6.109 1.687 0 3.141 0.125 3.563 0.187z"></path>
</symbol>
<symbol id="icon-linkedin" viewBox="0 0 24 28">
<title>linkedin</title>
<path d="M5.453 9.766v15.484h-5.156v-15.484h5.156zM5.781 4.984c0.016 1.484-1.109 2.672-2.906 2.672v0h-0.031c-1.734 0-2.844-1.188-2.844-2.672 0-1.516 1.156-2.672 2.906-2.672 1.766 0 2.859 1.156 2.875 2.672zM24 16.375v8.875h-5.141v-8.281c0-2.078-0.75-3.5-2.609-3.5-1.422 0-2.266 0.953-2.641 1.875-0.125 0.344-0.172 0.797-0.172 1.266v8.641h-5.141c0.063-14.031 0-15.484 0-15.484h5.141v2.25h-0.031c0.672-1.062 1.891-2.609 4.672-2.609 3.391 0 5.922 2.219 5.922 6.969z"></path>
</symbol>
<symbol id="icon-instagram" viewBox="0 0 24 28">
<title>instagram</title>
<path d="M16 14c0-2.203-1.797-4-4-4s-4 1.797-4 4 1.797 4 4 4 4-1.797 4-4zM18.156 14c0 3.406-2.75 6.156-6.156 6.156s-6.156-2.75-6.156-6.156 2.75-6.156 6.156-6.156 6.156 2.75 6.156 6.156zM19.844 7.594c0 0.797-0.641 1.437-1.437 1.437s-1.437-0.641-1.437-1.437 0.641-1.437 1.437-1.437 1.437 0.641 1.437 1.437zM12 4.156c-1.75 0-5.5-0.141-7.078 0.484-0.547 0.219-0.953 0.484-1.375 0.906s-0.688 0.828-0.906 1.375c-0.625 1.578-0.484 5.328-0.484 7.078s-0.141 5.5 0.484 7.078c0.219 0.547 0.484 0.953 0.906 1.375s0.828 0.688 1.375 0.906c1.578 0.625 5.328 0.484 7.078 0.484s5.5 0.141 7.078-0.484c0.547-0.219 0.953-0.484 1.375-0.906s0.688-0.828 0.906-1.375c0.625-1.578 0.484-5.328 0.484-7.078s0.141-5.5-0.484-7.078c-0.219-0.547-0.484-0.953-0.906-1.375s-0.828-0.688-1.375-0.906c-1.578-0.625-5.328-0.484-7.078-0.484zM24 14c0 1.656 0.016 3.297-0.078 4.953-0.094 1.922-0.531 3.625-1.937 5.031s-3.109 1.844-5.031 1.937c-1.656 0.094-3.297 0.078-4.953 0.078s-3.297 0.016-4.953-0.078c-1.922-0.094-3.625-0.531-5.031-1.937s-1.844-3.109-1.937-5.031c-0.094-1.656-0.078-3.297-0.078-4.953s-0.016-3.297 0.078-4.953c0.094-1.922 0.531-3.625 1.937-5.031s3.109-1.844 5.031-1.937c1.656-0.094 3.297-0.078 4.953-0.078s3.297-0.016 4.953 0.078c1.922 0.094 3.625 0.531 5.031 1.937s1.844 3.109 1.937 5.031c0.094 1.656 0.078 3.297 0.078 4.953z"></path>
</symbol>
<symbol id="icon-castrol" viewBox="0 0 131 32">
<title>castrol</title>
<path d="M129.691 0.747h-111.653c-6.031 0.062-11.984 1.718-15.253 7.349-2.86 4.542-2.684 11.74 0.261 16.171 2.938 4.85 7.923 6.815 13.091 6.971h105.308l8.254-30.489h0.008l-0.017-0.003zM122.064 32h-106.554c-5.744-0.263-11.4-3.314-13.973-8.945-2.509-5.13-1.961-12.496 1.761-16.96 3.636-4.428 8.621-5.953 14.076-6.096h113.37l-8.674 31.989-0.008 0.008 0.003 0.003zM27.137 11.522v0.008c-0.086-0.271-0.976-2.885-3.555-5.175-3.235-2.857-7.923-3.806-12.212-2.183l-1.953 7.349h17.72zM46.406 6.663v-0.011c-1.094-2.004-3.386-2.209-5.493-2.029-5.957 0.598-8.519 7.222-9.839 11.934-0.575 2.774-1.292 6.528 0.631 8.898 1.513 1.712 3.927 1.772 6.166 1.515 4.416-0.71 5.77-5.594 6.724-9.111-1.627 0.325-3.193 0.65-4.837 0.882 0 0-1.075 3.252-2.116 4.543-0.385 0.366-0.821 0.554-1.398 0.47-1.153-0.456-0.837-1.936-0.812-2.987 0.558-3.822 1.767-7.544 3.366-10.924 0.567-0.906 1.407-2.222 2.702-2.070 0.254 0.068 0.488 0.289 0.603 0.521 0.324 1.952-0.689 3.661-0.927 5.433l4.723-0.786c0.533-1.865 1.435-4.295 0.508-6.28zM80.036 4.85l0.017 0.008-4.592 0.71c0 0-0.779 2.667-1.189 3.986h-1.619l-0.664 2.687h1.558c0 0-1.898 6.741-2.738 10.017-0.148 0.786-0.385 1.777 0 2.531 1.295 2.367 4.461 1.308 6.769 1.504 0.226-0.882 0.595-1.753 0.664-2.643-0.952-0.128-2.177 0.344-2.895-0.41 0.017-1.231 0.55-3.121 0.988-4.696 0.569-2.053 1.812-6.312 1.812-6.312h3.182l0.692-2.687h-3.174l1.189-4.696zM107.829 21.693l0.011 0.011 4.617-16.843-4.723 0.923c0 0-2.013 7.022-2.895 10.487-0.614 2.703-2.057 5.313-1.558 8.221 0.759 1.84 2.526 1.908 4.338 1.848 0.849-0.035 2.493 0.008 2.493 0.008s0.569-2.651 0.569-2.695c-0.98-0.060-2.099 0.24-2.791-0.445-0.341-0.437-0.045-1.018-0.061-1.515zM8.678 6.141l0.008-0.003c-2.501 1.772-4.137 4.464-4.723 7.194-1.075 4.86 0.729 9.411 4.567 12.491 3.096 2.474 7.74 3.233 11.64 1.797 3.464-1.275 6.638-4.284 7.601-7.981h-19.724c-0.734-0.016-1.337-0.317-1.853-0.838-0.689-0.658-0.595-1.745-0.41-2.643 0.971-3.345 1.881-6.697 2.895-10.017zM71.492 9.554l-0.008-0.016c-3.411-1.095-7.765-0.726-9.979 2.37-0.927 1.556-1.164 3.885 0 5.39 1.050 1.813 4.12 2.711 3.255 5.133-1.278 1.982-4.357 1.204-6.149 0.863 0.017 0-0.701 2.763-0.726 2.755 2.989 0.754 7.076 1.199 9.532-0.991 1.75-1.352 2.267-3.549 1.75-5.646-0.43-2.394-4.357-3.32-3.665-6.031 1.030-1.788 3.514-1.343 5.211-1.207 0.008 0 0.815-2.594 0.779-2.618zM91.655 8.749v-0.008l-1.291-0.377c-2.7-0.288-5.221 0.184-7.43 1.235l-4.356 16.44h4.4l3.845-14.322c0.943-0.324 2.079-0.377 3.126-0.263l1.705-2.705zM96.929 11.384c-0.406 0.115-0.771 0.377-1.1 0.752-1.924 3.127-3.264 7.371-3.369 10.419 0.044 0.489 0.296 0.788 0.771 0.796 0.685 0.008 0.987-0.324 1.393-0.743 1.783-2.959 3.143-6.784 3.264-10.539 0.017-0.604-0.511-0.718-0.962-0.682h-0.008l0.011-0.003zM101.796 10.554c1.316 2.794 0.191 6.111-0.625 8.773-0.945 2.688-2.822 5.77-5.68 6.722-2.001 0.57-4.522 0.657-6.211-0.682-2.286-2.154-1.429-6.066-0.625-8.569 1.153-3.562 3.897-7.994 7.941-8.457 2.043-0.045 4.14 0.218 5.196 2.224h0.008l-0.006-0.011zM53.368 17.819c-1.368 0.218-3.057 0.665-3.845 2.154-0.415 0.902-0.597 2.269 0.147 3.065 0.556 0.55 1.498 0.263 2.2 0.263l1.49-5.479 0.008-0.003zM58.346 9.87c1.092 1.391 0.727 3.677 0.304 5.289l-2.814 10.399c-1.177 0.525-2.606 0.612-3.958 0.858-2.606 0.263-5.509 0.156-6.954-2.327-0.755-1.743-0.451-4.079 0.666-5.549 2.225-2.733 5.44-3.168 8.607-3.702 0.26-0.841 0.572-1.855 0.26-2.758-0.962-1.277-2.858-0.657-4.182-0.534-0.755 0.131-1.404 0.394-2.114 0.595 0.036 0.025 0.666-2.906 0.666-2.914 2.789-1.059 7.137-1.813 9.536 0.631l-0.017 0.011zM13.486 14.527h-0.796c-0.163 0-0.285-0.14-0.268-0.307v-0.045c0.017-0.168 0.166-0.307 0.321-0.307h0.804c0.163 0 0.285 0.14 0.268 0.307l-0.008 0.045c-0.017 0.168-0.166 0.307-0.321 0.307zM12.975 16.332h-0.804c-0.163 0-0.285-0.131-0.268-0.307v-0.045c0.017-0.168 0.166-0.316 0.321-0.316h0.804c0.163 0 0.285 0.148 0.268 0.316v0.045c-0.017 0.176-0.166 0.307-0.321 0.307zM11.858 15.36c0.105 0 0.199-0.106 0.207-0.238v-0.025c0.008-0.14-0.069-0.238-0.174-0.238h-0.536c-0.105 0-0.199 0.106-0.207 0.238v0.025c-0.008 0.14 0.069 0.238 0.174 0.238h0.536zM12.361 13.583h-0.536c-0.105 0-0.182-0.106-0.174-0.238v-0.025c0.008-0.131 0.102-0.238 0.207-0.238h0.536c0.105 0 0.182 0.106 0.174 0.238v0.025c-0.008 0.123-0.102 0.238-0.207 0.238zM11.347 17.182c0.105 0 0.207-0.106 0.207-0.238v-0.036c0.008-0.131-0.069-0.238-0.174-0.238h-0.536c-0.105 0-0.199 0.106-0.207 0.238v0.036c-0.008 0.131 0.069 0.238 0.174 0.238h0.536zM10.88 14.466h-0.536c-0.105 0-0.182-0.106-0.174-0.238v-0.025c0.008-0.131 0.102-0.238 0.207-0.238h0.536c0.105 0 0.182 0.106 0.174 0.238v0.025c-0.008 0.131-0.102 0.238-0.207 0.238zM10.377 16.279c0.105 0 0.199-0.106 0.207-0.238v-0.025c0.008-0.131-0.069-0.238-0.174-0.238h-0.536c-0.105 0-0.199 0.106-0.207 0.238v0.025c-0.008 0.131 0.069 0.238 0.174 0.238h0.536zM9.443 15.36c0.105 0 0.199-0.106 0.207-0.238v-0.025c0.008-0.131-0.069-0.238-0.174-0.238h-0.536c-0.105 0-0.199 0.115-0.207 0.238v0.025c-0.008 0.131 0.069 0.238 0.174 0.238 0 0 0.536 0 0.536 0zM9.954 13.575h-0.536c-0.105 0-0.191-0.098-0.174-0.238v-0.025c0.008-0.131 0.102-0.238 0.207-0.238h0.536c0.105 0 0.182 0.098 0.174 0.238v0.025c-0.008 0.131-0.102 0.238-0.207 0.238zM8.94 17.173c0.105 0 0.199-0.106 0.207-0.238v-0.036c0.008-0.131-0.069-0.238-0.174-0.238h-0.536c-0.105 0-0.207 0.106-0.207 0.238v0.036c-0.008 0.131 0.069 0.238 0.174 0.238h0.536zM14.879 14.634l-0.008 0.003-0.296 0.936h-0.544c-0.268 0-0.475-0.193-0.451-0.439l0.008-0.053c0.033-0.254 0.268-0.447 0.536-0.447h0.755zM14.327 16.444l-0.017 0.003h0.008l-0.26 0.936h-0.511c-0.276 0-0.475-0.201-0.451-0.447v-0.053c0.033-0.238 0.268-0.439 0.536-0.439h0.694zM15.451 12.873l-0.006 0.011h0.008l-0.329 0.936h-0.511c-0.276 0-0.475-0.193-0.451-0.447l0.008-0.053c0.033-0.254 0.268-0.447 0.536-0.447h0.744zM21.281 13.214c-0.105 0-0.191 0.070-0.199 0.184v0.025c-0.008 0.095 0.061 0.168 0.166 0.168h0.503c0.105 0 0.191-0.070 0.199-0.168l0.008-0.025c0.008-0.095-0.061-0.184-0.166-0.184h-0.511zM20.286 16.707h0.511c0.105 0 0.174 0.089 0.166 0.184l-0.008 0.017c-0.008 0.106-0.094 0.184-0.199 0.184h-0.503c-0.105 0-0.174-0.089-0.166-0.184v-0.017c0.008-0.106 0.094-0.184 0.199-0.184zM20.761 14.941h0.511c0.105 0 0.174 0.081 0.166 0.176l-0.008 0.025c-0.008 0.106-0.105 0.184-0.199 0.184h-0.503c-0.105 0-0.174-0.089-0.166-0.184l0.008-0.025c0-0.098 0.086-0.176 0.191-0.176zM19.653 14.047c-0.105 0-0.191 0.078-0.199 0.176v0.025c-0.008 0.095 0.061 0.184 0.166 0.184h0.503c0.105 0 0.191-0.078 0.199-0.184l0.008-0.025c0.008-0.095-0.061-0.176-0.166-0.176 0 0-0.503 0-0.503 0h-0.008zM19.158 15.86c-0.105 0-0.191 0.078-0.199 0.184v0.017c-0.008 0.095 0.061 0.184 0.166 0.184h0.503c0.105 0 0.191-0.078 0.199-0.184l0.008-0.017c0.008-0.095-0.061-0.184-0.166-0.184h-0.511zM18.525 13.197c-0.105 0-0.191 0.070-0.199 0.168v0.025c-0.008 0.095 0.061 0.184 0.166 0.184h0.503c0.105 0 0.191-0.070 0.199-0.184v-0.025c0.008-0.095-0.061-0.168-0.166-0.168h-0.503zM17.538 16.69h0.503c0.105 0 0.174 0.089 0.166 0.184l-0.008 0.017c-0.008 0.106-0.094 0.176-0.199 0.176h-0.503c-0.105 0-0.174-0.081-0.166-0.176l0.008-0.017c0.008-0.106 0.094-0.184 0.199-0.184zM18.017 14.913h0.503c0.105 0 0.174 0.089 0.166 0.184l-0.008 0.025c-0.008 0.106-0.105 0.184-0.199 0.184h-0.503c-0.105 0-0.174-0.089-0.166-0.184l0.008-0.025c0.008-0.106 0.094-0.184 0.199-0.184zM16.751 13.969c-0.155 0-0.285 0.095-0.296 0.226l-0.008 0.025c-0.017 0.131 0.105 0.238 0.26 0.238h0.763c0.155 0 0.285-0.095 0.296-0.238l0.008-0.025c0.017-0.123-0.105-0.226-0.26-0.226 0 0-0.763 0-0.763 0zM16.214 15.762c-0.155 0-0.285 0.095-0.296 0.238l-0.008 0.025c-0.017 0.131 0.105 0.238 0.26 0.238h0.763c0.155 0 0.285-0.095 0.296-0.238l0.008-0.025c0.017-0.131-0.105-0.238-0.26-0.238h-0.763zM14.595 15.578h0.804c0.268 0 0.503-0.193 0.536-0.447l0.008-0.053c0.017-0.254-0.182-0.447-0.451-0.447h-0.614l0.26-0.796h0.84c0.268 0 0.511-0.193 0.536-0.447l0.008-0.053c0.025-0.238-0.166-0.447-0.434-0.447h11.943c0.556 2.573 0.113 4.49 0.113 4.49h-13.226c0.268 0 0.511-0.201 0.536-0.447l0.008-0.053c0.025-0.246-0.182-0.439-0.451-0.439h-0.658l0.268-0.858 0.008-0.008-0.039 0.006z"></path>
</symbol>
<symbol id="icon-diageo" viewBox="0 0 149 32">
<title>diageo</title>
<path d="M46.261 19.843c0.088-0.194 0.253-0.515 0.314-0.676l3.9-9.471 3.826 9.563c0.061 0.165 0.196 0.418 0.282 0.644l-0.473 0.095c-1.088 0.291-2.294 0.482-3.546 0.482-1.233 0-2.38-0.163-3.601-0.482-0.227-0.063-0.535-0.156-0.701-0.156l-0.001 0.001zM6.7 5.407c4.331 0 7.382 0.895 9.304 2.594 2.294 2.015 3.441 4.674 3.441 7.996 0 3.171-1.118 5.794-3.306 7.846-1.921 1.82-5.049 2.784-9.439 2.784h-1.416v-21.22h1.416zM140.602 8.129c2.172 2.112 3.214 4.765 3.214 7.867 0 3.075-1.073 5.696-3.214 7.876-2.132 2.142-4.72 3.234-7.744 3.234-6.088 0-10.943-5.027-10.943-11.11 0-3.069 1.088-5.726 3.228-7.901 2.105-2.144 4.727-3.2 7.715-3.2 2.993 0 5.585 1.088 7.744 3.234zM89.247 9.986l0.001-0.001c-2.456-3.362-5.419-5.090-9.186-5.090-2.936 0-5.48 1.026-7.593 3.168-2.233 2.243-3.306 4.925-3.306 8.032 0 2.945 1.042 5.471 3.111 7.583 2.308 2.277 4.796 3.428 7.561 3.428 2.385 0 4.531-0.739 6.404-2.272 1.732-1.375 2.715-3.043 2.936-4.961h-8.548v-4.896h13.91l0.057 0.927c0.137 2.302-0.12 4.224-0.537 5.789-0.505 1.893-1.368 3.618-2.711 5.124-1.398 1.63-3.123 2.876-5.108 3.772-2.035 0.932-4.136 1.411-6.341 1.411-8.698 0-15.845-7.203-15.845-15.938 0-8.923 7.178-16.062 16.067-16.062 5.224 0 9.664 2.207 12.985 6.657l-3.857 3.329zM56.566 24.739l2.826 6.782h5.615l-13.164-31.105h-2.559l-13.509 31.105h5.571l2.963-6.913c0.076-0.19 0.105-0.321 0.137-0.448 0.131 0.063 0.307 0.127 0.535 0.222 1.667 0.642 3.647 0.993 5.581 0.993 1.921 0 3.798-0.38 4.916-0.767 0.566-0.19 0.758-0.289 0.924-0.384 0.029 0.129 0.133 0.418 0.164 0.515zM6.534 31.521c5.674 0 10.038-1.282 12.968-3.935 3.353-3.008 5.049-6.851 5.049-11.553 0-4.894-1.728-8.833-5.166-11.777-2.904-2.492-7.208-3.745-12.789-3.745h-6.595v31.009l6.533 0.001zM28.692 31.521v-31.009h5.074v31.009h-5.074zM102.974 17.055l0.001-0.001v9.572h11.81v4.894h-16.874v-31.009h16.842v4.896h-11.779v6.788h10.81v4.86h-10.81zM121.544 4.706c-3.157 3.105-4.718 6.913-4.718 11.327 0 8.925 7.176 15.967 16.032 15.967 8.889 0 16.040-7.006 16.040-15.967 0-4.385-1.599-8.13-4.693-11.298-3.125-3.168-6.907-4.735-11.347-4.735-4.405 0-8.187 1.567-11.314 4.706z"></path>
</symbol>
<symbol id="icon-ee" viewBox="0 0 19 32">
<title>ee</title>
<path d="M7.842 18.068c0.218 0 0.409 0.11 0.521 0.277 0.111-0.166 0.302-0.277 0.521-0.277 0.25 0 0.465 0.145 0.564 0.354 0.099-0.209 0.313-0.354 0.564-0.354s0.465 0.144 0.564 0.353c0.1-0.209 0.315-0.353 0.564-0.353 0.344 0 0.621 0.274 0.621 0.612s-0.278 0.611-0.621 0.611c-0.25 0-0.465-0.145-0.564-0.354-0.099 0.209-0.314 0.354-0.564 0.354s-0.465-0.145-0.564-0.354c-0.099 0.209-0.314 0.354-0.564 0.354-0.218 0-0.409-0.11-0.521-0.277-0.044 0.066-0.1 0.124-0.167 0.169 0.162 0.11 0.269 0.294 0.269 0.503s-0.106 0.39-0.266 0.5c0.162 0.11 0.266 0.293 0.266 0.5s-0.106 0.39-0.266 0.5c0.050 0.034 0.093 0.075 0.131 0.121 0.114-0.141 0.289-0.231 0.487-0.231 0.228 0 0.427 0.121 0.535 0.301 0.108-0.18 0.308-0.301 0.535-0.301 0.225 0 0.422 0.118 0.532 0.294 0.11-0.176 0.306-0.294 0.532-0.294 0.343 0 0.622 0.274 0.622 0.612s-0.278 0.611-0.622 0.611c-0.225 0-0.422-0.117-0.532-0.294-0.11 0.177-0.307 0.294-0.532 0.294-0.228 0-0.428-0.121-0.535-0.3-0.108 0.179-0.307 0.3-0.535 0.3-0.197 0-0.372-0.090-0.487-0.231-0.038 0.047-0.082 0.089-0.133 0.123 0.162 0.11 0.269 0.294 0.269 0.503s-0.106 0.393-0.269 0.503c0.162 0.11 0.269 0.294 0.269 0.503s-0.107 0.393-0.269 0.503c0.065 0.046 0.121 0.102 0.167 0.168 0.111-0.168 0.303-0.278 0.521-0.278 0.25 0 0.465 0.144 0.564 0.354 0.099-0.209 0.314-0.354 0.564-0.354s0.465 0.144 0.564 0.353c0.1-0.209 0.315-0.353 0.564-0.353 0.344 0 0.621 0.273 0.621 0.611s-0.278 0.612-0.621 0.612c-0.25 0-0.465-0.144-0.564-0.353-0.099 0.209-0.314 0.353-0.564 0.353s-0.465-0.145-0.564-0.354c-0.099 0.209-0.314 0.354-0.564 0.354-0.217 0-0.408-0.109-0.518-0.274-0.111 0.168-0.303 0.278-0.522 0.278-0.343 0-0.621-0.274-0.621-0.612 0-0.209 0.107-0.393 0.269-0.503-0.163-0.11-0.269-0.294-0.269-0.503s0.106-0.393 0.269-0.503c-0.162-0.11-0.269-0.294-0.269-0.503s0.107-0.391 0.269-0.503c-0.163-0.11-0.269-0.294-0.269-0.503s0.106-0.391 0.266-0.502c-0.162-0.11-0.266-0.293-0.266-0.5s0.106-0.39 0.266-0.5c-0.162-0.11-0.266-0.293-0.266-0.5s0.106-0.393 0.269-0.503c-0.162-0.11-0.269-0.294-0.269-0.503 0-0.338 0.278-0.612 0.621-0.612l-0.001-0.001zM7.842 6.687c0.218 0 0.409 0.11 0.521 0.277 0.111-0.166 0.302-0.277 0.521-0.277 0.25 0 0.465 0.145 0.564 0.354 0.099-0.208 0.313-0.354 0.564-0.354s0.465 0.144 0.564 0.353c0.1-0.208 0.315-0.353 0.564-0.353 0.344 0 0.621 0.273 0.621 0.611s-0.278 0.612-0.621 0.612c-0.25 0-0.465-0.144-0.564-0.354-0.099 0.208-0.314 0.354-0.564 0.354s-0.465-0.145-0.564-0.354c-0.099 0.208-0.314 0.354-0.564 0.354-0.218 0-0.409-0.11-0.521-0.277-0.044 0.067-0.101 0.124-0.167 0.169 0.162 0.11 0.269 0.294 0.269 0.503 0 0.207-0.105 0.39-0.265 0.502 0.161 0.11 0.265 0.294 0.265 0.502s-0.105 0.39-0.265 0.502c0.049 0.034 0.093 0.075 0.13 0.121 0.114-0.141 0.289-0.23 0.487-0.23 0.228 0 0.427 0.121 0.535 0.3 0.108-0.18 0.308-0.3 0.535-0.3 0.225 0 0.422 0.117 0.532 0.294 0.11-0.176 0.306-0.294 0.532-0.294 0.343 0 0.622 0.273 0.622 0.611s-0.278 0.612-0.622 0.612c-0.225 0-0.422-0.117-0.532-0.294-0.11 0.177-0.307 0.294-0.532 0.294-0.228 0-0.428-0.121-0.535-0.3-0.108 0.179-0.307 0.3-0.535 0.3-0.197 0-0.372-0.090-0.487-0.231-0.038 0.047-0.082 0.088-0.133 0.122 0.163 0.11 0.269 0.294 0.269 0.503s-0.106 0.393-0.269 0.503c0.162 0.11 0.269 0.294 0.269 0.503s-0.106 0.393-0.269 0.503c0.065 0.045 0.121 0.101 0.167 0.166 0.111-0.168 0.303-0.278 0.521-0.278 0.25 0 0.465 0.145 0.564 0.354 0.099-0.209 0.314-0.354 0.564-0.354s0.465 0.144 0.564 0.353c0.1-0.209 0.315-0.353 0.564-0.353 0.344 0 0.621 0.274 0.621 0.612s-0.278 0.611-0.621 0.611c-0.25 0-0.465-0.144-0.564-0.353-0.099 0.209-0.314 0.353-0.564 0.353s-0.465-0.144-0.564-0.354c-0.099 0.21-0.314 0.354-0.564 0.354-0.217 0-0.408-0.109-0.518-0.274-0.111 0.168-0.303 0.278-0.522 0.278-0.343 0-0.621-0.273-0.621-0.611 0-0.209 0.107-0.393 0.269-0.503-0.163-0.11-0.269-0.294-0.269-0.503s0.107-0.393 0.269-0.503c-0.163-0.11-0.269-0.295-0.269-0.503s0.107-0.393 0.269-0.503c-0.163-0.11-0.269-0.294-0.269-0.503 0-0.207 0.105-0.39 0.265-0.502-0.161-0.11-0.265-0.294-0.265-0.502s0.105-0.39 0.265-0.502c-0.161-0.11-0.265-0.294-0.265-0.502s0.107-0.393 0.269-0.503c-0.163-0.11-0.269-0.295-0.269-0.503 0-0.338 0.278-0.611 0.621-0.611l-0.001-0.002zM9.544 2.816c-4.307 0-7.646 3.44-7.646 7.463 0 3.565 2.367 5.484 2.367 5.484 0.234 0.203 0.175 0.308 0.008 0.474 0 0-2.376 2.124-2.376 5.408 0 4.502 3.664 7.542 7.646 7.542 4.452 0 7.618-3.559 7.618-7.489 0-3.383-2.28-5.379-2.28-5.379-0.322-0.305-0.321-0.355 0-0.633 0 0 2.28-1.884 2.28-5.405 0-3.979-3.252-7.463-7.618-7.463v-0.001z"></path>
</symbol>
<symbol id="icon-first-direct" viewBox="0 0 197 32">
<title>first-direct</title>
<path d="M11.685 5.767h2.342v-4.727c-0.996-0.043-2.256-0.018-3.295-0.018-5.722 0-7.573 3.127-7.573 6.473v1.977h-3.153v4.344h3.153v16.845h6.583v-16.845h4.044v-4.343h-3.872v-1.606c0-1.46 0.861-2.105 1.77-2.105v0.006zM16.547 9.046v21.626h6.159v-21.626h-6.159zM16.688 0.968v5.025h6.054v-5.025h-6.054zM40.856 14.594v-5.962c-5.292 0-6.62 1.168-7.702 3.851l0.018-3.236h-6.085v21.419h6.38v-9.709c0-2.865 0.633-7.337 7.394-6.357l-0.006-0.006zM48.128 14.552c0-2.555 7.357-2.555 7.198 0.919h5.624c-0.455-5.238-4.788-6.807-9.496-6.807-4.622 0-9.373 1.709-9.373 7.154 0 3.753 3.442 4.928 6.829 5.779 4.247 1.071 6.319 0.876 6.614 2.628 0.424 2.549-2.791 2.823-3.78 2.823-2.33 0-4.499-0.669-4.536-3.224h-5.624c0.246 5.651 5.12 7.41 10.123 7.41 4.917 0 9.834-2.184 9.834-7.793 0-8.036-13.412-4.842-13.412-8.888zM75.855 30.709v-4.636c-4.057 0.024-4.057-0.146-4.008-2.555v-9.508h3.915v-4.441h-3.915v-6.734h-6.288v6.734h-3.055v4.441h3.055v11.145c0 3.711-0.301 6.053 10.296 5.554zM92.254 19.881c0 3.96 1.678 6.777 4.807 6.777 3.59 0 4.88-2.987 4.88-6.813 0-3.887-1.506-6.503-4.88-6.503-2.053 0-4.807 1.040-4.807 6.54zM101.972 28.428h0.006c-1.371 2.312-3.54 2.78-6.288 2.78-6.503 0-9.669-5.597-9.669-11.491 0-5.737 3.202-11.053 9.539-11.053 2.539 0 4.844 0.639 6.22 2.744l0.043-10.384h6.251v29.644h-5.974l-0.129-2.239zM112.181 9.046v21.626h6.153v-21.626h-6.153zM112.322 0.968v5.025h6.054v-5.025h-6.054zM136.491 14.643v-5.962c-5.292 0-6.62 1.174-7.708 3.851l0.018-3.242h-6.085v21.316h6.38v-9.612c0-3.029 0.676-7.549 7.394-6.357v0.006zM142.932 17.423h9.232c0-2.78-1.746-4.343-4.315-4.343-3.547 0-4.837 2.689-4.917 4.343zM158.126 24.516c-1.66 5.037-5.298 6.625-10.179 6.625-6.786 0-10.996-4.623-10.996-11.218 0-6.387 4.462-11.351 10.996-11.351 7.333 0 11.021 6.041 10.554 12.878h-15.637c0.166 3.711 3.264 5.274 5.095 5.274 2.649 0 3.768-1.314 4.241-2.208h5.925zM167.070 20.002c0-3.139 1.303-6.978 4.942-6.929 2.041 0.024 3.989 1.46 4.376 3.893l5.796-0.067c-0.424-5.609-5.040-8.237-10.123-8.237-7.001 0-11.002 4.903-11.002 11.546 0 6.905 4.376 11.023 10.879 11.023 5.667 0 9.521-2.731 10.277-8.377l-5.71-0.134c-0.43 2.616-2.145 3.905-4.61 3.905-3.473 0-4.819-3.255-4.819-6.619l-0.006-0.006zM192.676 23.482v-9.508h3.915v-4.441h-3.915v-6.728h-6.288v6.728h-3.055v4.441h3.055v11.139c0 3.711-0.301 6.059 10.302 5.56v-4.636c-4.063 0.024-4.063-0.146-4.014-2.555z"></path>
</symbol>
<symbol id="icon-huel" viewBox="0 0 96 32">
<title>huel</title>
<path d="M6.905 0.104h-6.905v31.325h6.905v-13.513h12.711v13.513h6.906v-31.325h-6.906v12.021h-12.711v-12.021zM45.29 31.43h5.939v-22.683h-6.246v11.89c0 2.311-0.381 3.971-1.143 4.98s-1.995 1.513-3.695 1.513c-1.496 0-2.536-0.46-3.123-1.382s-0.88-2.318-0.88-4.19v-12.811h-6.246v13.952c0 1.404 0.125 2.684 0.374 3.839 0.248 1.156 0.681 2.135 1.297 2.94s1.458 1.426 2.529 1.865c1.069 0.439 2.441 0.658 4.112 0.658 1.32 0 2.61-0.293 3.871-0.878 1.26-0.585 2.287-1.536 3.079-2.852h0.132v3.159zM67.685 14.056c-0.748-0.819-1.884-1.229-3.408-1.229-0.998 0-1.826 0.169-2.486 0.505s-1.187 0.753-1.583 1.25c-0.396 0.498-0.675 1.024-0.836 1.58s-0.257 1.053-0.286 1.492h10.16c-0.293-1.579-0.814-2.779-1.561-3.598zM60.626 25.989c0.938 0.907 2.287 1.36 4.047 1.36 1.26 0 2.346-0.314 3.255-0.943 0.908-0.628 1.466-1.294 1.671-1.996h5.498c-0.88 2.72-2.228 4.666-4.046 5.835s-4.018 1.755-6.598 1.755c-1.789 0-3.402-0.285-4.838-0.856s-2.654-1.382-3.651-2.435c-0.997-1.053-1.767-2.31-2.309-3.773-0.543-1.462-0.814-3.071-0.814-4.826 0-1.696 0.278-3.276 0.836-4.738s1.349-2.727 2.375-3.795c1.026-1.067 2.25-1.909 3.672-2.523s2.998-0.921 4.729-0.921c1.935 0 3.621 0.373 5.058 1.119s2.617 1.748 3.541 3.005c0.924 1.258 1.59 2.691 2.001 4.3s0.557 3.291 0.44 5.046h-16.406c0.088 2.018 0.601 3.481 1.54 4.387l-0.001-0.001zM77.326 31.43h6.246v-31.325h-6.246v31.325zM93.386 2.706v-0.001c0.016 0.574-0.167 0.755-0.391 0.891-0.107 0.060-0.259 0.132-0.34 0.175 0.042 0 0.078 0.004 0.106 0.013 0.26 0.085 0.458 0.432 0.615 0.749s0.491 1.013 0.491 1.013l-1.034-0.010c0 0-0.459-0.96-0.637-1.224-0.117-0.174-0.416-0.233-0.606-0.253h-0.187v1.466h-0.95v-3.818h1.462c0 0 0.427-0.014 0.772 0.095 0.368 0.117 0.683 0.335 0.699 0.904zM92.338 2.595c-0.071-0.158-0.311-0.177-0.424-0.181h-0.51v1.002l0.459-0.009v-0.002c0 0 0.386 0.021 0.48-0.19 0.019-0.043 0.052-0.162 0.052-0.325 0-0.142-0.028-0.23-0.057-0.295zM95.775 3.776c0 1.042-0.366 1.921-1.099 2.634-0.713 0.691-1.568 1.036-2.566 1.036-1.031 0-1.9-0.354-2.606-1.061s-1.059-1.577-1.059-2.609c0-1.072 0.381-1.964 1.144-2.674 0.716-0.664 1.556-0.996 2.521-0.996 1.011 0 1.875 0.36 2.591 1.076s1.074 1.581 1.074 2.594zM95.128 3.776l-0.001-0.001c0-0.816-0.293-1.525-0.88-2.126-0.593-0.611-1.306-0.916-2.138-0.916-0.842 0-1.559 0.305-2.153 0.916-0.584 0.597-0.876 1.306-0.876 2.126 0 0.85 0.297 1.572 0.891 2.166 0.59 0.595 1.302 0.892 2.138 0.892 0.832 0 1.543-0.298 2.134-0.896 0.59-0.6 0.885-1.321 0.885-2.161z"></path>
</symbol>
<symbol id="icon-qualcomm" viewBox="0 0 146 32">
<title>qualcomm</title>
<path d="M59.294 18.268c0 0.594 0.697 1.287 1.293 1.287l8.865-0.004-1.985-3.168h-5.136v-12.19h-3.037v14.076zM19.409 19.8h0.005c1.63-1.569 2.645-3.767 2.645-6.198 0-4.75-3.884-8.602-8.673-8.602s-8.673 3.852-8.673 8.602c0 4.75 3.884 8.602 8.673 8.602 0.783 0 1.539-0.121 2.263-0.313l-0.005-5.3 3.765-1.068v4.276zM26.772 13.602v-0.004c0 5.17-3.014 9.621-7.362 11.815v6.43h-3.765l0.023-5.166c-0.747 0.13-1.493 0.201-2.281 0.201-7.394 0-13.386-5.943-13.386-13.276s5.992-13.276 13.386-13.276c7.394 0 13.386 5.943 13.386 13.276zM39.124 19.555h-0.009c0.601 0 1.293-0.688 1.293-1.282v-14.081h-3.037v12.19h-5.272v-12.19h-3.037l0.009 14.081c0 0.594 0.706 1.282 1.302 1.282h8.751zM79.928 4.755c-1.216-0.706-2.641-1.113-4.148-1.113-4.539 0-8.214 3.646-8.214 8.146s3.679 8.146 8.214 8.146c1.416 0 2.773-0.366 3.938-0.992l-1.48-2.645c-0.733 0.393-1.562 0.621-2.454 0.621-2.855 0-5.172-2.297-5.172-5.13s2.317-5.13 5.172-5.13c0.965 0 1.871 0.273 2.645 0.728l1.507-2.632h-0.009zM86.967 16.963c2.855 0 5.172-2.297 5.172-5.13s-2.317-5.13-5.172-5.13c-2.855 0-5.168 2.319-5.168 5.152s2.313 5.108 5.168 5.108zM86.967 3.687c4.539 0 8.218 3.646 8.218 8.146s-3.679 8.146-8.218 8.146c-4.539 0-8.209-3.624-8.209-8.124s3.674-8.169 8.209-8.169zM47.406 13.611h4.899l-2.454-5.514-2.445 5.514zM51.358 4.214l0.009-0.004 6.779 15.256h-3.228l-1.352-3.034-0.146-0.322h-7.025l-1.594 3.36h-3.228l6.775-15.256h3.010zM144.057 17.664l-5.564-12.736c-0.332-0.612-0.906-0.898-1.712-0.898s-1.38 0.282-1.712 0.898l-4.089 9.339-4.089-9.339c-0.332-0.612-0.906-0.898-1.712-0.898s-1.38 0.282-1.712 0.898l-4.089 9.362-4.089-9.362c-0.332-0.612-0.906-0.898-1.712-0.898s-1.38 0.282-1.712 0.898l-4.089 9.339-4.089-9.339c-0.332-0.612-0.901-0.898-1.712-0.898s-1.38 0.282-1.712 0.898l-5.568 12.736c-0.765 1.993 1.999 3.021 2.9 1.417l4.375-10.139 4.375 10.139c0.569 1.037 2.331 0.992 2.855 0l4.375-10.139 4.375 10.139c0.287 0.509 0.76 0.728 1.252 0.76 0.059 0.009 0.114 0.013 0.178 0.013 0.059-0.004 0.114-0.009 0.178-0.013 0.487-0.031 0.965-0.25 1.252-0.76l4.375-10.139 4.375 10.139c0.524 0.992 2.286 1.037 2.855 0l4.375-10.139 4.375 10.139c0.901 1.604 3.661 0.576 2.9-1.417h-0.014zM143.502 5.975l-0.005 0.004h0.378c0.269 0 0.505-0.022 0.505-0.335 0-0.259-0.232-0.304-0.451-0.304h-0.428v0.635zM144.704 5.657h-0.005c0 0.371-0.232 0.527-0.537 0.567l0.592 0.903h-0.351l-0.546-0.889h-0.36v0.889h-0.314v-2.056h0.788c0.492 0 0.733 0.183 0.733 0.585zM143.88 7.588c0.81 0 1.452-0.63 1.452-1.488 0-0.845-0.637-1.479-1.452-1.479-0.82 0-1.462 0.635-1.462 1.479 0 0.858 0.642 1.488 1.462 1.488zM143.88 4.321c0.979 0 1.817 0.755 1.817 1.779 0 1.032-0.838 1.787-1.817 1.787-0.988 0-1.826-0.755-1.826-1.787 0-1.023 0.838-1.779 1.826-1.779z"></path>
</symbol>
<symbol id="icon-samsung" viewBox="0 0 99 32">
<title>samsung</title>
<path d="M28.419 20.353l-1.006-7.281h-0.229l-1.010 7.281h-2.755l1.703-9.39h4.353l1.703 9.39h-2.759zM38.473 10.973l0.827 5.143h0.204l0.869-5.143h4.283l0.278 9.387h-2.576l-0.063-7.074h-0.179l-1.341 7.074h-2.696l-1.358-7.074h-0.197l-0.032 7.074h-2.562l0.215-9.39 4.328 0.003zM52.063 13.837v-0.8c0-0.569-0.721-0.603-0.721-0.603-0.556 0-0.683 0.358-0.683 0.358-0.306 0.552 0.218 1.020 0.218 1.020 0.267 0.286 1.615 0.879 1.615 0.879 0.436 0.162 1.137 0.579 1.137 0.579 1.316 0.758 1.196 2.196 1.196 2.196v0.945c-0.162 2.344-3.544 2.279-3.544 2.279-3.547 0-3.47-2.217-3.47-2.217v-1.162h2.759v0.8c0 0.679 0.69 0.71 0.69 0.71 0.753 0.031 0.816-0.669 0.816-0.669 0.106-0.672-0.676-1.1-0.676-1.1-0.771-0.376-2.059-1.041-2.059-1.041-0.633-0.396-0.894-0.758-0.894-0.758-0.454-0.548-0.426-1.396-0.426-1.396v-0.738c0-1.017 0.289-1.313 0.289-1.313 0.735-1.313 3.29-1.155 3.29-1.155 3.248 0.086 3.047 2.017 3.047 2.017l0.007 1.179-2.59-0.003-0.007-0.007h0.004zM60.709 18.029c0 0.796 0.795 0.758 0.795 0.758 0.753 0 0.714-0.776 0.714-0.776v-7.084h2.752v7.163c0 2.582-3.424 2.544-3.424 2.544-3.941 0-3.653-2.668-3.653-2.668v-7.043h2.815l0.007 7.098h-0.004l-0.004 0.007zM76.791 20.363h-3.058l-2.727-5.743h-0.113l0.155 5.743h-2.569v-9.387h3.153l2.636 5.698h0.113l-0.183-5.698h2.597v9.387h-0.004zM86.296 19.529c8.368-3.906 12.982-8.353 12.299-12.034-1.432-7.739-26.016-8.987-51.388-4.688-11.609 1.968-22.715 4.923-30.232 7.853 0.398-0.024 0.679-0.007 0.679-0.007 3.248 0.083 3.051 2.013 3.051 2.013l0.007 1.179h-2.594v-0.8c0-0.565-0.721-0.603-0.721-0.603-0.556 0-0.686 0.362-0.686 0.362-0.303 0.548 0.218 1.020 0.218 1.020 0.267 0.286 1.612 0.879 1.612 0.879 0.436 0.162 1.14 0.579 1.14 0.579 1.316 0.758 1.196 2.196 1.196 2.196v0.945c-0.158 2.344-3.547 2.279-3.547 2.279-3.547 0-3.47-2.217-3.47-2.217v-1.162h2.759v0.8c0 0.679 0.69 0.71 0.69 0.71 0.753 0.031 0.816-0.669 0.816-0.669 0.102-0.672-0.676-1.1-0.676-1.1-0.771-0.376-2.059-1.041-2.059-1.041-0.637-0.396-0.894-0.755-0.894-0.755-0.454-0.545-0.426-1.4-0.426-1.4v-0.738c0-1.017 0.289-1.313 0.289-1.313 0.014-0.021 0.025-0.041 0.039-0.066-9.266 4.088-14.938 8.825-14.22 12.717 1.457 7.901 24.64 8.939 51.909 4.93 12.556-1.844 23.482-5.24 31.752-8.759-0.056 0.003-0.12 0.003-0.183 0.003 0 0-3.343 0.259-3.421-2.31v-4.974c0 0-0.419-2.744 3.325-2.744 0 0 2.435-0.072 3.079 1.306 0 0 0.317 0.369 0.229 1.893h-2.597v-0.783c0 0-0.007-0.634-0.679-0.634 0 0-0.704 0.031-0.704 0.558v5.143c0 0-0.032 0.689 0.764 0.689 0 0 0.651-0.017 0.651-0.738v-1.486h-0.711v-1.382h3.336v2.92c0 0-0.007 0.614-0.278 0.972 0-0.003-0.267 0.396-0.373 0.469v-0.007l0.018-0.007z"></path>
</symbol>
<symbol id="icon-universal" viewBox="0 0 70 32">
<title>universal</title>
<path d="M35.566 9.797l-0.002-0.002-0.037 0.050v0.034h0.053l0.072-0.016h0.211l0.123 0.050 0.142 0.066 0.177 0.135 0.125 0.085 0.107 0.032 0.070 0.016h0.088l0.072 0.016 0.072 0.034 0.195 0.183 0.019 0.050v0.050c0.197-0.080 0.441-0.080 0.62 0.032l0.035-0.016 0.070-0.016 0.088-0.034 0.088-0.016 0.072-0.050v-0.032c-0.481-0.064-0.483 0.060-0.867-0.284-0.372-0.227-0.335 0.062-0.639-0.151-0.307-0.355-0.109-0.222-0.495-0.284-0.149 0.007-0.351-0.073-0.46 0.066zM46.672 20.444l-0.053-0.135 0.016-0.133 0.035-0.101 0.016-0.034h-9.263l1.027 0.854 0.088 0.032 0.088 0.069 0.088 0.048 0.088 0.069c0.235 0.197 0.328 0.488 0.39 0.77l-0.019 0.101-0.053 0.050-0.053 0.082-0.072 0.135-0.035 0.234-0.035 0.369c0.005 0.268 0.039 0.758-0.267 0.921l-0.035-0.032h-0.019c-0.014 0.738-0.297 1.457-0.743 2.059-0.263 0.234-0.304 0.511-0.107 0.786-0.165 0.099-0.397 0.985-0.372 1.122l0.035 0.117 0.053 0.133 0.088 0.101 0.107 0.082 0.142 0.085 0.125 0.016 0.123-0.016 0.053-0.032-0.019-0.034-0.072-0.050-0.053-0.050-0.035-0.069 0.053-0.082 0.142-0.101 0.283-0.133 0.158-0.133 0.035-0.151-0.072-0.117-0.053-0.032h0.037l0.053-0.034 0.142-0.032 0.125-0.069 0.158-0.117 0.158-0.167 0.16-0.236 0.158-0.3 0.195 0.016 0.16-0.032 0.105-0.050 0.123-0.082 0.16-0.101 0.211-0.101 0.302-0.085 0.551-0.151 0.088-0.032 0.088-0.050 0.053-0.034 0.019-0.066 0.016-0.050c-0.072-0.456 0.102-0.291 0.583-0.552 0.913-0.568 1.38-1.008 1.931-1.876l0.072-0.151 0.107-0.133 0.142-0.117 0.211-0.117 0.249-0.117 0.195-0.066h0.265l0.107 0.032h0.072l0.088-0.050 0.088-0.085 0.179-0.234 0.142-0.183c0.179-0.341 0.167-0.593 0.46-0.921l0.053-0.050 0.053-0.066 0.053-0.050 0.035-0.085 0.053-0.066v-0.085l-0.019-0.053 0.009 0.002zM39.941 11.018l0.037 0.183h0.142l0.053-0.050 0.019-0.066-0.072-0.032h-0.053l-0.053-0.034h-0.072zM39.446 10.935l-0.002-0.002c-0.349-0.085-0.725-0.536-1.222-0.334v0.252l-0.016 0.082-0.072 0.085c0.146 0.002 0.263-0.032 0.321 0.135 0.293-0.179 0.66-0.156 0.992-0.218zM50.923 20.778c-5.369 13.35-25.86 13.428-31.35 0.135 5.151 14.944 26.157 14.568 31.35-0.135zM50.958 11.355c-2.219-6.677-8.238-11.249-15.747-11.249-7.836-0.007-13.273 4.196-15.675 11.098 1.965-4.824 5.896-7.893 10.366-9.231-0.088 0.156-0.146 0.275-0.146 0.275-0.088 0.149-0.137 0.341-0.283 0.451-0.386 0.165-0.56 0.751-0.743 1.088l-0.070 0.135v0.066l0.016 0.016v0.151c-0.163 0.488-0.706 0.864-0.957 1.324l-0.142 0.284-0.088 0.252-0.072 0.252-0.070 0.183-0.016 0.133-0.019 0.034c0.325 0.589 0.411 1.271 0.302 1.924v0.016l0.019 0.016 0.053 0.034 0.072 0.066 0.088 0.133 0.070 0.135 0.053 0.167 0.072 0.167 0.070 0.183 0.053 0.167 0.072 0.085 0.035 0.016c0.383-0.552-0.374-1.477-0.23-2.126h0.035l0.088-0.066 0.072-0.016c0.070 0.969 0.623 1.832 1.134 2.643l-0.053 0.066-0.107 0.151v0.151l0.195 0.050-0.125 0.268h0.125l0.072 0.016h0.088l0.088 0.034 0.107 0.032 0.072 0.069 0.088 0.050 0.142 0.135 0.211 0.149 0.088 0.016 0.070 0.016h3.278c0.105-0.401 0.207-0.825 0.46-1.173h-0.019l-0.070-0.034h-0.321l-0.088-0.016-0.088-0.050-0.053-0.050h-0.072c-0.151 0.078-0.304 0.534-0.407 0.637-0.109 0.337-0.799 0.323-1.099 0.353-0.267 0.060-0.207-0.023-0.39-0.202-0.095-0.165-0.193-0.33-0.302-0.486-0.544-1.106 0.618-2.804 2-2.21 0.732-0.545 0.929 0.032 1.559-0.234l0.265-0.050 0.177 0.050 0.107 0.149 0.072 0.218 0.070 0.268 0.107 0.252 0.16 0.218 0.249 0.149 0.088-0.318-0.053-0.284-0.088-0.284-0.214-0.47-0.053-0.218 0.053-0.186 0.195-0.167c0.321-0.167 0.964-0.511 1.099-0.854l0.105-0.199 0.088-0.202 0.142-0.302 0.070-0.117 0.072-0.101 0.070-0.066 0.072-0.034 0.158-0.082 0.125-0.101 0.072-0.101 0.053-0.119 0.016-0.101v-0.066l-0.016-0.066v-0.016h0.035l0.070 0.016 0.088 0.016h0.142l0.16-0.016 0.158-0.050 0.195-0.066 0.16-0.133-0.125-0.050-0.16-0.066-0.123-0.066-0.107-0.085-0.107-0.066-0.088-0.101v-0.218l0.107-0.101h0.16l0.23 0.016 0.249 0.066 0.249 0.050h0.249l0.211-0.085 0.158-0.183c-0.718-0.273-1.106-0.724-1.735-1.003l-0.107 0.101-0.088 0.050h-0.195l-0.107-0.032-0.088-0.050-0.125-0.082-0.123-0.101c-0.523-0.428-0.706-0.009-1.045-0.334l-0.072 0.183v0.252l0.072 0.082 0.053 0.050 0.107 0.032 0.070 0.034 0.072 0.050 0.088 0.101v0.034l-0.035-0.016-0.107-0.016-0.107 0.016-0.107 0.085-0.053 0.149v0.318l-0.019 0.101-0.035 0.050-0.088 0.050-0.088-0.016-0.107-0.034c-0.474-0.291-0.135-0.385-0.655-0.568-0.367-0.188-1.064-0.064-1.364-0.369l0.053-0.085 0.072-0.101 0.125-0.085 0.123-0.117 0.177-0.101 0.195-0.133 0.214-0.135 0.249-0.101c0.82-0.412 1.905-0.502 2.816-0.385 0 0-0.072-0.032-0.188-0.085 5.601 0.788 10.812 4.116 13.119 9.978l0.002 0.007zM6.891 12.743h-2.586l0.39 0.451v3.447l-0.088 0.218-0.107 0.167c-0.232 0.293-0.699 0.387-1.064 0.385l-0.265-0.016-0.23-0.050-0.23-0.066-0.177-0.117-0.142-0.135-0.107-0.167-0.088-0.218v-3.447l0.39-0.451h-2.583l0.39 0.451c0.239 3.182-1.090 5.422 3.046 5.459 4.184-0.039 2.797-2.224 3.064-5.459l0.39-0.451h-0.005zM15.851 12.743h-2.161l0.372 0.451v2.93l-3.118-3.381h-1.949l0.39 0.451v4.922l-0.39 0.419h2.161l-0.372-0.419v-2.964l3.313 3.383h1.364v-5.342l0.39-0.451zM20.865 18.536l-0.372-0.419v-4.922l0.372-0.451h-2.586l0.39 0.451v4.922l-0.39 0.419h2.586zM29.456 12.743h-2.198l0.39 0.451-1.54 3.198-1.489-3.198 0.39-0.451h-2.586l2.853 5.793h1.275l2.904-5.793zM36.754 18.536v-1.558l-0.479 0.353h-3.115v-1.104h1.965l0.462 0.369v-1.876l-0.462 0.369h-1.965v-1.122h3.115l0.479 0.369v-1.59h-5.773l0.39 0.451v4.922l-0.39 0.419 5.773-0.002zM41.235 15.404h-0.002c0.632 0.027 2.105 0.197 2.179-0.77-0.012-0.259-0.1-0.465-0.353-0.586l-0.142-0.034-0.142-0.050h-1.54v1.441zM45.522 18.536l-0.002-0.002h-2.727l0.39-0.419-1.169-1.624h-0.778v1.624l0.39 0.419h-2.567l0.39-0.419v-4.92l-0.39-0.451h3.826l0.602 0.050 0.495 0.101 0.409 0.167 0.337 0.202 0.23 0.268 0.158 0.3 0.107 0.318 0.016 0.369c0.007 0.875-0.558 1.436-1.382 1.741l1.666 2.277zM53.297 16.861c-0.026-1.276-1.44-1.642-2.497-1.942-0.381-0.032-1.742-0.488-0.973-0.955 0.685-0.35 2.509 0.241 3.153 0.552v-1.958l-0.495 0.451c-1.257-0.472-3.002-0.655-4.161 0.117-0.355 0.279-0.641 0.685-0.604 1.138-0.072 1.104 0.987 1.633 1.931 1.94l0.318 0.101 0.318 0.066 0.283 0.066 0.267 0.085 0.195 0.069 0.158 0.117 0.123 0.117 0.035 0.183c-0.007 0.33-0.483 0.442-0.762 0.435-1.001-0.050-2.005-0.344-2.853-0.852v2.142l0.497-0.502c1.58 0.573 5.004 1.008 5.065-1.372l0.002 0.002zM57.458 16.46h2.040l-1.029-2.075-1.011 2.075zM62.435 18.536v-0.002h-2.586l0.39-0.419-0.302-0.618h-2.904l-0.321 0.618 0.39 0.419h-2.249l2.709-5.339-0.211-0.451h2.072l3.011 5.793zM64.1 12.743l0.39 0.451v4.923l-0.39 0.419h5.597v-1.558l-0.46 0.353h-2.957v-4.135l0.39-0.451-2.57-0.002zM69.149 13.263l-0.053-0.050-0.088-0.034-0.072-0.016h-0.088l-0.16 0.016-0.142 0.085-0.088 0.151-0.035 0.167 0.035 0.167 0.088 0.117 0.142 0.101 0.16 0.034 0.088-0.034h0.072l0.088-0.032 0.053-0.050v-0.101l-0.053 0.050-0.088 0.050-0.072 0.016-0.088 0.016-0.142-0.034-0.107-0.066-0.107-0.236c0.088-0.371 0.395-0.456 0.655-0.218v-0.101l0.002 0.002zM68.050 13.563c0.049-0.946 1.517-0.946 1.54 0-0.014 0.971-1.505 0.967-1.54 0zM67.98 13.563c-0.009 1.031 1.65 1.111 1.701 0-0.063-1.090-1.698-1.012-1.701 0z"></path>
</symbol>
<symbol id="icon-logo-full" viewBox="0 0 48 32">
<title>logo-full</title>
<path d="M1.508 5.27h9.902v-3.878h-9.902v3.878zM2.114 1.998h8.69v2.668h-8.69v-2.668z"></path>
<path d="M1.508 15.086h9.902v-3.878h-9.902v3.878zM2.114 11.814h8.69v2.666h-8.69v-2.666z"></path>
<path d="M18.544 1l-6.038 14.086h12.074l-6.038-14.086zM18.544 2.538l5.118 11.944h-10.238l5.118-11.944z"></path>
<path d="M29.7 1.392c-3.242 0-5.88 2.652-5.88 5.912s2.638 5.912 5.88 5.912c3.242 0 5.88-2.652 5.88-5.912s-2.638-5.912-5.88-5.912zM29.7 12.61c-2.908 0-5.274-2.38-5.274-5.306s2.366-5.308 5.274-5.308c2.908 0 5.276 2.38 5.276 5.308s-2.366 5.306-5.276 5.306z"></path>
<path d="M34.622 1.392l12.114 14.214v-14.214h-12.114zM35.934 1.998h10.196v11.964l-10.196-11.964z"></path>
<path d="M8.084 29.068h-4.084v-1.456h3.994v-1.932h-3.994v-1.34h4.084v-1.934h-6.3v8.594h6.3v-1.932zM18.356 22.406h-2.796l-3.234 8.594h2.512l0.426-1.238h3.39l0.424 1.238h2.512l-3.234-8.594zM15.868 27.83l1.096-3.234 1.082 3.234h-2.178zM31.666 27.842c0.472-0.164 0.876-0.462 1.212-0.896s0.502-0.994 0.502-1.682c0-0.826-0.266-1.508-0.798-2.050s-1.262-0.812-2.19-0.812h-4.304v8.594h2.216v-2.886h1.134l1.442 2.886h2.538l-1.752-3.158zM28.304 26.182v-1.842h1.752c0.31 0 0.564 0.082 0.766 0.244s0.302 0.386 0.302 0.67c0 0.292-0.1 0.52-0.302 0.684s-0.458 0.246-0.766 0.246h-1.752zM46.46 22.406h-2.23v4.73l-3.48-4.73h-2.28v8.594h2.216v-4.974l3.634 4.974h2.14v-8.594z"></path>
</symbol>
<symbol id="icon-logo" viewBox="0 0 92 32">
<title>logo</title>
<path d="M0 10v-8h20v8h-20zM1.224 8.751h17.553v-5.501h-17.553v5.501zM0 30v-8h20v8h-20zM1.224 28.749h17.553v-5.501h-17.553v5.501zM36 0l12 30h-24l12-30zM36 3.275l-10.174 25.435h20.348l-10.174-25.435zM58 24.669c5.935 0 10.764-5.234 10.764-11.668s-4.829-11.67-10.764-11.67-10.764 5.235-10.764 11.67c0 6.434 4.829 11.668 10.764 11.668zM58 0c6.616 0 12 5.832 12 13.001 0 7.168-5.384 12.999-12 12.999s-12-5.832-12-12.999c0-7.169 5.383-13.001 12-13.001zM68 2h24v30l-24-30zM70.598 3.279l20.201 25.251v-25.251h-20.201z"></path>
</symbol>
<symbol id="icon-email" viewBox="0 0 20 20">
<title>email</title>
<path d="M19.833 1.127c-0.144-0.129-0.349-0.163-0.527-0.088l-19 8c-0.192 0.081-0.314 0.272-0.306 0.48s0.144 0.389 0.342 0.455l5.658 1.886v5.64c0 0.212 0.133 0.4 0.333 0.471 0.055 0.019 0.111 0.029 0.167 0.029 0.148 0 0.291-0.066 0.388-0.185l2.763-3.401 4.497 4.441c0.095 0.094 0.221 0.144 0.351 0.144 0.042 0 0.084-0.005 0.125-0.016 0.17-0.044 0.305-0.174 0.355-0.343l5-17c0.055-0.185-0.003-0.385-0.147-0.514zM16.13 3.461l-9.724 7.48-4.488-1.496 14.212-5.984zM7 11.746l9.415-7.242-7.194 8.854c-0 0-0 0.001-0.001 0.001l-2.22 2.733v-4.346zM14.256 17.557l-3.972-3.922 8.033-9.887-4.061 13.808z"></path>
</symbol>
<symbol id="icon-arrow-left" viewBox="0 0 20 20">
<title>arrow-left</title>
<path d="M0.646 10.146l6-6c0.195-0.195 0.512-0.195 0.707 0s0.195 0.512 0 0.707l-5.146 5.146h16.293c0.276 0 0.5 0.224 0.5 0.5s-0.224 0.5-0.5 0.5h-16.293l5.146 5.146c0.195 0.195 0.195 0.512 0 0.707-0.098 0.098-0.226 0.146-0.354 0.146s-0.256-0.049-0.354-0.146l-6-6c-0.195-0.195-0.195-0.512 0-0.707z"></path>
</symbol>
<symbol id="icon-arrow-right" viewBox="0 0 20 20">
<title>arrow-right</title>
<path d="M19.354 10.146l-6-6c-0.195-0.195-0.512-0.195-0.707 0s-0.195 0.512 0 0.707l5.146 5.146h-16.293c-0.276 0-0.5 0.224-0.5 0.5s0.224 0.5 0.5 0.5h16.293l-5.146 5.146c-0.195 0.195-0.195 0.512 0 0.707 0.098 0.098 0.226 0.146 0.354 0.146s0.256-0.049 0.354-0.146l6-6c0.195-0.195 0.195-0.512 0-0.707z"></path>
</symbol>
<symbol id="icon-play-circle" viewBox="0 0 20 20">
<title>play-circle</title>
<path d="M9.5 20c-2.538 0-4.923-0.988-6.718-2.782s-2.782-4.18-2.782-6.717c0-2.538 0.988-4.923 2.782-6.718s4.18-2.783 6.718-2.783c2.538 0 4.923 0.988 6.718 2.783s2.782 4.18 2.782 6.718-0.988 4.923-2.782 6.717c-1.794 1.794-4.18 2.782-6.718 2.782zM9.5 2c-4.687 0-8.5 3.813-8.5 8.5s3.813 8.5 8.5 8.5c4.687 0 8.5-3.813 8.5-8.5s-3.813-8.5-8.5-8.5z"></path>
<path d="M6.5 16c-0.083 0-0.167-0.021-0.242-0.063-0.159-0.088-0.258-0.256-0.258-0.437v-10c0-0.182 0.099-0.349 0.258-0.437s0.353-0.083 0.507 0.013l8 5c0.146 0.091 0.235 0.252 0.235 0.424s-0.089 0.333-0.235 0.424l-8 5c-0.081 0.051-0.173 0.076-0.265 0.076zM7 6.402v8.196l6.557-4.098-6.557-4.098z"></path>
</symbol>
</defs>
</svg>
