<svg aria-hidden="true" style="position: absolute; width: 0; height: 0; overflow: hidden;" version="1.1" xmlns="http://www.w3.org/2000/svg" xmlns:xlink="http://www.w3.org/1999/xlink">
<defs>
<symbol id="icon-logo" viewBox="0 0 92 32">
<title>logo</title>
<path d="M0 10v-8h20v8h-20zM1.224 8.751h17.553v-5.501h-17.553v5.501zM0 30v-8h20v8h-20zM1.224 28.749h17.553v-5.501h-17.553v5.501zM36 0l12 30h-24l12-30zM36 3.275l-10.174 25.435h20.348l-10.174-25.435zM58 24.669c5.935 0 10.764-5.234 10.764-11.668s-4.829-11.67-10.764-11.67-10.764 5.235-10.764 11.67c0 6.434 4.829 11.668 10.764 11.668zM58 0c6.616 0 12 5.832 12 13.001 0 7.168-5.384 12.999-12 12.999s-12-5.832-12-12.999c0-7.169 5.383-13.001 12-13.001zM68 2h24v30l-24-30zM70.598 3.279l20.201 25.251v-25.251h-20.201z"></path>
</symbol>
<symbol id="icon-arrow-left" viewBox="0 0 20 20">
<title>arrow-left</title>
<path d="M0.646 10.146l6-6c0.195-0.195 0.512-0.195 0.707 0s0.195 0.512 0 0.707l-5.146 5.146h16.293c0.276 0 0.5 0.224 0.5 0.5s-0.224 0.5-0.5 0.5h-16.293l5.146 5.146c0.195 0.195 0.195 0.512 0 0.707-0.098 0.098-0.226 0.146-0.354 0.146s-0.256-0.049-0.354-0.146l-6-6c-0.195-0.195-0.195-0.512 0-0.707z"></path>
</symbol>
<symbol id="icon-arrow-right" viewBox="0 0 20 20">
<title>arrow-right</title>
<path d="M19.354 10.146l-6-6c-0.195-0.195-0.512-0.195-0.707 0s-0.195 0.512 0 0.707l5.146 5.146h-16.293c-0.276 0-0.5 0.224-0.5 0.5s0.224 0.5 0.5 0.5h16.293l-5.146 5.146c-0.195 0.195-0.195 0.512 0 0.707 0.098 0.098 0.226 0.146 0.354 0.146s0.256-0.049 0.354-0.146l6-6c0.195-0.195 0.195-0.512 0-0.707z"></path>
</symbol>
</defs>
</svg>
